<?xml version="1.0" encoding="UTF-8"?>
<svg id="Layer_2" data-name="Layer 2" xmlns="http://www.w3.org/2000/svg" viewBox="0 0 272.87 90">
  <defs>
    <style>
      .cls-1 {
        fill: #f4f4f5;
        stroke-width: 0px;
      }
    </style>
  </defs>
  <g id="Layer_1-2" data-name="Layer 1">
    <g id="original-wc">
      <g>
        <path class="cls-1" d="m148.8,63.83c-5.06,2.86-10.69,4.29-16.88,4.29-7.2,0-13.01-2.32-17.46-6.96-4.44-4.64-6.66-10.78-6.66-18.42s2.47-14.21,7.4-19.21c4.93-5,11.19-7.51,18.76-7.51,5.48,0,10.09.89,13.82,2.67v6.54c-4.08-2.58-8.91-3.87-14.48-3.87s-10.28,1.95-13.89,5.84c-3.61,3.89-5.41,8.93-5.41,15.12s1.68,11.38,5.03,15.03c3.35,3.64,7.9,5.47,13.64,5.47,3.94,0,7.35-.79,10.23-2.36v-14.13h-11.04v-5.34h16.95v22.85Z"/>
        <path class="cls-1" d="m190.32,22.2h-14.55v45.07h-5.91V22.2h-14.52v-5.34h34.98v5.34Z"/>
        <path class="cls-1" d="m204.14,48.22v19.05h-5.91V16.86h13.85c5.39,0,9.57,1.31,12.53,3.94s4.45,6.33,4.45,11.11-1.65,8.7-4.94,11.74-7.74,4.57-13.34,4.57h-6.65Zm0-26.02v20.67h6.19c4.08,0,7.19-.93,9.33-2.79s3.22-4.49,3.22-7.89c0-6.66-3.94-9.98-11.81-9.98h-6.93Z"/>
        <path class="cls-1" d="m272.87,65.16c-3.73,1.97-8.37,2.95-13.92,2.95-7.17,0-12.91-2.31-17.23-6.93s-6.47-10.68-6.47-18.18c0-8.06,2.43-14.58,7.28-19.55s11-7.45,18.46-7.45c4.78,0,8.74.69,11.88,2.07v6.29c-3.61-2.02-7.59-3.02-11.95-3.02-5.79,0-10.48,1.93-14.08,5.8s-5.4,9.04-5.4,15.5,1.68,11.03,5.04,14.68,7.78,5.47,13.24,5.47c5.06,0,9.45-1.12,13.15-3.38v5.73Z"/>
      </g>
      <path class="cls-1" d="m43.2,0h-3.6l.9,9h5.85c18,1.35,32.85,15.75,33.75,34.2.9,19.8-14.4,36.9-34.2,37.8h-5.4l-.45,9h7.65c24.3-1.8,42.75-22.5,41.85-46.8C88.65,20.25,70.2,2.25,47.7.45h-2.25C44.55,0,44.1,0,43.2,0Zm-15.75,3.15c-2.25,1.35-4.5,2.25-6.75,3.6l4.95,7.65c1.35-.9,3.15-1.8,4.95-2.7l-3.15-8.55ZM10.8,15.3c-1.8,1.8-3.15,4.05-4.5,5.85l7.65,4.5c.9-1.35,2.25-2.7,3.6-4.5l-6.75-5.85Zm49.05,13.5l-20.7,23.4-12.15-9.45-4.95,7.65,18.9,14.4,26.1-29.7-7.2-6.3ZM1.35,31.5C.45,33.75,0,36.45,0,38.7l9,1.35c.45-1.8.45-4.05,1.35-5.85l-9-2.7Zm7.65,18l-9,.9v1.35c.45,1.8.9,4.05,1.35,5.85l8.55-2.7c-.45-1.35-.9-3.15-.9-4.95v-.45Zm4.95,14.4l-7.65,4.95c1.35,2.25,2.7,4.05,4.5,5.85l6.75-5.85c-1.35-1.8-2.7-3.15-3.6-4.95Zm11.7,11.7l-4.95,7.65c2.25,1.35,4.5,2.25,6.75,3.6l3.6-8.1c-2.25-1.35-4.05-2.25-5.4-3.15Z"/>
    </g>
  </g>
</svg>