<?xml version="1.0" encoding="UTF-8"?>
<svg id="Layer_2" data-name="Layer 2" xmlns="http://www.w3.org/2000/svg" viewBox="0 0 563.81 158.02">
  <defs>
    <style>
      .cls-1 {
        fill: #f4f4f5;
      }
    </style>
  </defs>
  <g id="Layer_1-2" data-name="Layer 1">
    <g id="OG-White-c">
      <path class="cls-1" d="M75.85,0h-6.32l1.58,15.8h10.27c31.6,2.37,57.68,27.65,59.26,60.05,1.58,34.76-25.28,64.79-60.05,66.37h-9.48l-.79,15.8h13.43c42.67-3.16,75.06-39.5,73.48-82.17C155.65,35.55,123.25,3.95,83.75.79h-3.95C78.22,0,77.43,0,75.85,0ZM48.2,5.53c-3.95,2.37-7.9,3.95-11.85,6.32l8.69,13.43c2.37-1.58,5.53-3.16,8.69-4.74l-5.53-15.01ZM18.96,26.86c-3.16,3.16-5.53,7.11-7.9,10.27l13.43,7.9c1.58-2.37,3.95-4.74,6.32-7.9l-11.85-10.27ZM105.08,50.57l-36.34,41.08-21.33-16.59-8.69,13.43,33.18,25.28,45.83-52.15-12.64-11.06ZM2.37,55.31C.79,59.26,0,64,0,67.95l15.8,2.37c.79-3.16.79-7.11,2.37-10.27l-15.8-4.74ZM15.8,86.91l-15.8,1.58v2.37c.79,3.16,1.58,7.11,2.37,10.27l15.01-4.74c-.79-2.37-1.58-5.53-1.58-8.69v-.79ZM24.49,112.19l-13.43,8.69c2.37,3.95,4.74,7.11,7.9,10.27l11.85-10.27c-2.37-3.16-4.74-5.53-6.32-8.69ZM45.04,132.74l-8.69,13.43c3.95,2.37,7.9,3.95,11.85,6.32l6.32-14.22c-3.95-2.37-7.11-3.95-9.48-5.53Z"/>
      <g>
        <path class="cls-1" d="M208.62,89.69v25.92h-17.06V37.19h27.23c9.81,0,17.16,2.12,22.07,6.37s7.36,10.64,7.36,19.17c0,8.06-2.82,14.57-8.45,19.52s-13.15,7.44-22.56,7.44h-8.59ZM208.62,50.42v26.2h7.11c4.81,0,8.43-1.1,10.86-3.31s3.64-5.51,3.64-9.93-1.19-7.58-3.58-9.73-6.01-3.23-10.86-3.23h-7.16Z"/>
        <path class="cls-1" d="M315.42,51.13h-22.42v64.48h-17.12V51.13h-22.31v-13.95h61.85v13.95Z"/>
        <path class="cls-1" d="M333.14,116.97c-2.88,0-5.25-.87-7.11-2.6s-2.79-3.93-2.79-6.59.94-4.9,2.82-6.62c1.88-1.71,4.24-2.57,7.08-2.57s5.25.86,7.11,2.57,2.79,3.92,2.79,6.62-.92,4.86-2.76,6.59c-1.84,1.73-4.22,2.6-7.14,2.6Z"/>
        <path class="cls-1" d="M349.82,115.61l28.6-78.42h20.23l28.05,78.42h-18.7l-5.47-16.68h-28.82l-5.41,16.68h-18.48ZM377.49,85.53h21l-8.86-27.73c-.37-1.02-.65-1.92-.85-2.71-.2-.78-.37-1.78-.52-2.98h-.44c-.18,1.06-.37,2-.57,2.84-.2.84-.45,1.71-.74,2.62l-9.02,27.95Z"/>
        <path class="cls-1" d="M454.77,89.69v25.92h-17.06V37.19h27.23c9.81,0,17.16,2.12,22.07,6.37,4.9,4.25,7.36,10.64,7.36,19.17,0,8.06-2.82,14.57-8.45,19.52s-13.15,7.44-22.56,7.44h-8.59ZM454.77,50.42v26.2h7.11c4.81,0,8.43-1.1,10.86-3.31,2.42-2.21,3.64-5.51,3.64-9.93s-1.19-7.58-3.58-9.73c-2.39-2.15-6.01-3.23-10.86-3.23h-7.16Z"/>
        <path class="cls-1" d="M524.22,89.69v25.92h-17.06V37.19h27.23c9.81,0,17.16,2.12,22.07,6.37,4.9,4.25,7.36,10.64,7.36,19.17,0,8.06-2.82,14.57-8.45,19.52s-13.15,7.44-22.56,7.44h-8.59ZM524.22,50.42v26.2h7.11c4.81,0,8.43-1.1,10.86-3.31,2.42-2.21,3.64-5.51,3.64-9.93s-1.19-7.58-3.58-9.73c-2.39-2.15-6.01-3.23-10.86-3.23h-7.16Z"/>
      </g>
    </g>
  </g>
</svg>