<?xml version="1.0" encoding="UTF-8"?>
<svg id="Layer_2" data-name="Layer 2" xmlns="http://www.w3.org/2000/svg" viewBox="0 0 988 990">
  <defs>
    <style>
      .cls-1 {
        fill: #f4f4f5;
      }

      .cls-1, .cls-2, .cls-3 {
        stroke-width: 0px;
      }

      .cls-3 {
        fill: #09090b;
      }
    </style>
  </defs>
  <g id="Layer_1-2" data-name="Layer 1">
    <g>
      <rect class="cls-3" x=".5" y=".5" width="987" height="989" rx="67.7" ry="67.7"/>
      <path class="cls-2" d="m919.8,1c37.06,0,67.2,30.15,67.2,67.2v853.6c0,37.06-30.15,67.2-67.2,67.2H68.2c-37.06,0-67.2-30.15-67.2-67.2V68.2C1,31.15,31.15,1,68.2,1h851.6m0-1H68.2C30.54,0,0,30.54,0,68.2v853.6c0,37.67,30.54,68.2,68.2,68.2h851.6c37.67,0,68.2-30.54,68.2-68.2V68.2c0-37.67-30.54-68.2-68.2-68.2h0Z"/>
    </g>
    <path class="cls-1" d="m481.17,132h-29.04l7.26,72.6h47.19c145.2,10.89,264.99,127.05,272.25,275.88,7.26,159.72-116.16,297.66-275.88,304.92h-43.56l-3.63,72.6h61.71c196.02-14.52,344.85-181.5,337.59-377.52-7.26-185.13-156.09-330.33-337.59-344.85h-18.15c-7.26-3.63-10.89-3.63-18.15-3.63Zm-127.05,25.41c-18.15,10.89-36.3,18.15-54.45,29.04l39.93,61.71c10.89-7.26,25.41-14.52,39.93-21.78l-25.41-68.97Zm-134.31,98.01c-14.52,14.52-25.41,32.67-36.3,47.19l61.71,36.3c7.26-10.89,18.15-21.78,29.04-36.3l-54.45-47.19Zm395.67,108.9l-166.98,188.76-98.01-76.23-39.93,61.71,152.46,116.16,210.54-239.58-58.08-50.82Zm-471.9,21.78c-7.26,18.15-10.89,39.93-10.89,58.08l72.6,10.89c3.63-14.52,3.63-32.67,10.89-47.19l-72.6-21.78Zm61.71,145.2l-72.6,7.26v10.89c3.63,14.52,7.26,32.67,10.89,47.19l68.97-21.78c-3.63-10.89-7.26-25.41-7.26-39.93v-3.63Zm39.93,116.16l-61.71,39.93c10.89,18.15,21.78,32.67,36.3,47.19l54.45-47.19c-10.89-14.52-21.78-25.41-29.04-39.93Zm94.38,94.38l-39.93,61.71c18.15,10.89,36.3,18.15,54.45,29.04l29.04-65.34c-18.15-10.89-32.67-18.15-43.56-25.41Z"/>
  </g>
</svg>